<svg width="79" height="78" viewBox="0 0 79 78" fill="none" xmlns="http://www.w3.org/2000/svg">
<rect width="79" height="78" rx="25" fill="url(#paint0_linear)"/>
<path d="M25.655 56C25.2957 56 25.0017 55.8857 24.773 55.657C24.5443 55.4283 24.43 55.1343 24.43 54.775V22.925C24.43 22.5657 24.5443 22.2717 24.773 22.043C25.0343 21.8143 25.3283 21.7 25.655 21.7H31.976C32.3353 21.7 32.6293 21.8143 32.858 22.043C33.1193 22.2717 33.25 22.5657 33.25 22.925V34.734H45.304V22.925C45.304 22.5657 45.4183 22.2717 45.647 22.043C45.8757 21.8143 46.1697 21.7 46.529 21.7H52.85C53.2093 21.7 53.5033 21.8143 53.732 22.043C53.9607 22.2717 54.075 22.5657 54.075 22.925V54.775C54.075 55.1343 53.9607 55.4283 53.732 55.657C53.5033 55.8857 53.2093 56 52.85 56H46.529C46.1697 56 45.8757 55.8857 45.647 55.657C45.4183 55.4283 45.304 55.1343 45.304 54.775V42.574H33.25V54.775C33.25 55.1343 33.1193 55.4283 32.858 55.657C32.6293 55.8857 32.3353 56 31.976 56H25.655Z" fill="white"/>
<defs>
<linearGradient id="paint0_linear" x1="79" y1="5.57143" x2="4.72721" y2="77.5449" gradientUnits="userSpaceOnUse">
<stop stop-color="#D18946"/>
<stop offset="1" stop-color="#FEB877"/>
</linearGradient>
</defs>
</svg>
